<svg width="512" height="512" viewBox="0 0 512 512" fill="none" xmlns="http://www.w3.org/2000/svg">
<path d="M211.55 211.55C198.274 224.826 187.901 240.857 181.14 258.67C180.246 261.353 179.13 263.951 177.81 266.44C157.94 302.2 163.7 348.77 192.42 377.49C221.14 406.21 267.71 411.97 303.47 392.1C305.959 390.78 308.557 389.664 311.24 388.77C329.053 382.01 345.084 371.636 358.36 358.36L211.55 211.55Z" fill="#F87171"/>
<path d="M117 311.24C122.95 328.4 133.56 343.83 147.64 355.85C148.421 356.511 149.213 357.16 150.01 357.79C152.61 359.71 155.3 361.54 158.07 363.27C175.7 375.43 195.41 383.69 216.05 387.21C220.06 387.94 224.09 388.51 228.16 388.92C241.6 390.27 254.89 388.55 267.19 383.99C269.83 383.03 272.43 381.98 274.99 380.84C294.61 372.49 311.83 359.52 325.01 343.34L188.17 206.5C158.38 226.41 129.13 259.95 117 311.24Z" fill="#F87171"/>
<path d="M211.55 211.55L358.36 358.36C371.636 345.084 382.01 329.053 388.77 311.24C391.241 305.81 393.221 300.229 394.69 294.54C408.23 238.14 374.67 177.62 319.4 146.04C317.84 145.22 316.27 144.42 314.68 143.64C254.34 112.31 185.01 129.93 146.04 184.2C144.42 186.29 142.87 188.42 141.39 190.59C130.49 207.25 124.64 226.35 124.64 245.92C124.64 271.49 133.58 295.66 149.2 313.93C151.78 317.06 154.48 320.08 157.29 322.98C171.055 336.745 187.892 346.992 206.5 352.83L211.55 211.55Z" fill="#F87171"/>
</svg>