<svg width="512" height="512" viewBox="0 0 512 512" fill="none" xmlns="http://www.w3.org/2000/svg">
<path d="M249.1 71.05C273.4 71.05 294.25 75.1 311.65 83.2C329.05 91 343.15 102.25 353.95 116.95C365.05 131.35 373.15 148 378.25 166.9C383.65 185.8 386.35 206.05 386.35 227.65V246.55C386.35 301.15 372.4 342.4 344.5 370.3C316.6 397.9 275.5 411.7 221.2 411.7C210.1 411.7 199.15 411.4 188.35 410.8C177.55 410.2 167.05 409.3 156.85 408.1V346.45C166.75 347.35 177.4 348.25 188.8 349.15C200.2 349.75 211.9 350.05 223.9 350.05C247.9 350.05 266.8 346.15 280.6 338.35C294.4 330.25 304.15 318.25 309.85 302.35C315.55 286.45 318.4 266.8 318.4 243.4V209.2L334.6 198.4C334.3 220.9 329.65 239.8 320.65 255.1C311.95 270.1 299.8 281.35 284.2 288.85C268.6 296.35 250.6 300.1 230.2 300.1C207.1 300.1 187.15 295.6 170.35 286.6C153.55 277.3 140.65 264.4 131.65 247.9C122.65 231.4 118.15 211.9 118.15 189.4C118.15 165.7 123.55 145 134.35 127.3C145.15 109.3 160.3 95.5 179.8 85.9C199.6 76 222.7 71.05 249.1 71.05ZM251.35 132.25C238.15 132.25 226.9 134.65 217.6 139.45C208.6 144.25 201.55 150.85 196.45 159.25C191.65 167.35 189.25 176.95 189.25 188.05C189.25 199.45 191.65 209.35 196.45 217.75C201.25 225.85 208 232.3 216.7 237.1C225.7 241.6 236.65 243.85 249.55 243.85C261.25 243.85 271.9 241.9 281.5 238C291.4 233.8 299.2 227.65 304.9 219.55C310.6 211.15 313.45 200.65 313.45 188.05C313.45 177.25 311.05 167.65 306.25 159.25C301.75 150.85 294.85 144.25 285.55 139.45C276.25 134.65 264.85 132.25 251.35 132.25Z" fill="#F87171"/>
</svg>
